<mxfile host="app.diagrams.net" modified="2023-05-23T19:47:57.817Z" agent="Mozilla/5.0 (Windows NT 10.0; Win64; x64) AppleWebKit/537.36 (KHTML, like Gecko) Chrome/113.0.0.0 Safari/537.36" etag="iWnIo79jNV_XGqTq7pk8" version="21.3.2" type="device">
  <diagram name="Page-1" id="_OWaajc-3fpwD0rDf2_s">
    <mxGraphModel dx="1834" dy="788" grid="1" gridSize="10" guides="1" tooltips="1" connect="1" arrows="1" fold="1" page="0" pageScale="1" pageWidth="1169" pageHeight="827" math="0" shadow="0">
      <root>
        <mxCell id="0" />
        <mxCell id="1" parent="0" />
        <mxCell id="yKqNTpvzBy1KA8ICd-nT-71" style="edgeStyle=none;rounded=0;orthogonalLoop=1;jettySize=auto;html=1;exitX=1;exitY=0;exitDx=0;exitDy=0;entryX=0.073;entryY=0.81;entryDx=0;entryDy=0;entryPerimeter=0;endArrow=none;endFill=0;" parent="1" source="yKqNTpvzBy1KA8ICd-nT-2" target="yKqNTpvzBy1KA8ICd-nT-70" edge="1">
          <mxGeometry relative="1" as="geometry" />
        </mxCell>
        <mxCell id="yKqNTpvzBy1KA8ICd-nT-72" style="edgeStyle=none;rounded=0;orthogonalLoop=1;jettySize=auto;html=1;exitX=1;exitY=0.75;exitDx=0;exitDy=0;endArrow=none;endFill=0;" parent="1" source="yKqNTpvzBy1KA8ICd-nT-2" target="yKqNTpvzBy1KA8ICd-nT-69" edge="1">
          <mxGeometry relative="1" as="geometry" />
        </mxCell>
        <mxCell id="yKqNTpvzBy1KA8ICd-nT-73" style="edgeStyle=none;rounded=0;orthogonalLoop=1;jettySize=auto;html=1;exitX=0.5;exitY=1;exitDx=0;exitDy=0;endArrow=none;endFill=0;" parent="1" source="yKqNTpvzBy1KA8ICd-nT-2" target="yKqNTpvzBy1KA8ICd-nT-68" edge="1">
          <mxGeometry relative="1" as="geometry" />
        </mxCell>
        <mxCell id="yKqNTpvzBy1KA8ICd-nT-74" style="edgeStyle=none;rounded=0;orthogonalLoop=1;jettySize=auto;html=1;exitX=0.25;exitY=1;exitDx=0;exitDy=0;entryX=1;entryY=0;entryDx=0;entryDy=0;endArrow=none;endFill=0;" parent="1" source="yKqNTpvzBy1KA8ICd-nT-2" target="yKqNTpvzBy1KA8ICd-nT-62" edge="1">
          <mxGeometry relative="1" as="geometry" />
        </mxCell>
        <mxCell id="yKqNTpvzBy1KA8ICd-nT-75" style="edgeStyle=none;rounded=0;orthogonalLoop=1;jettySize=auto;html=1;exitX=0;exitY=0.5;exitDx=0;exitDy=0;entryX=1;entryY=0.5;entryDx=0;entryDy=0;endArrow=none;endFill=0;" parent="1" source="yKqNTpvzBy1KA8ICd-nT-2" target="yKqNTpvzBy1KA8ICd-nT-61" edge="1">
          <mxGeometry relative="1" as="geometry" />
        </mxCell>
        <mxCell id="yKqNTpvzBy1KA8ICd-nT-2" value="Users" style="rounded=0;whiteSpace=wrap;html=1;" parent="1" vertex="1">
          <mxGeometry x="850" y="410" width="70" height="30" as="geometry" />
        </mxCell>
        <mxCell id="yKqNTpvzBy1KA8ICd-nT-3" value="d" style="ellipse;whiteSpace=wrap;html=1;aspect=fixed;" parent="1" vertex="1">
          <mxGeometry x="870" y="350" width="20" height="20" as="geometry" />
        </mxCell>
        <mxCell id="yKqNTpvzBy1KA8ICd-nT-4" value="" style="shape=link;html=1;rounded=0;entryX=0.5;entryY=0;entryDx=0;entryDy=0;exitX=0.5;exitY=1;exitDx=0;exitDy=0;" parent="1" source="yKqNTpvzBy1KA8ICd-nT-3" target="yKqNTpvzBy1KA8ICd-nT-2" edge="1">
          <mxGeometry width="100" relative="1" as="geometry">
            <mxPoint x="815" y="390" as="sourcePoint" />
            <mxPoint x="915" y="390" as="targetPoint" />
          </mxGeometry>
        </mxCell>
        <mxCell id="yKqNTpvzBy1KA8ICd-nT-64" style="edgeStyle=none;rounded=0;orthogonalLoop=1;jettySize=auto;html=1;exitX=0;exitY=0;exitDx=0;exitDy=0;entryX=1;entryY=1;entryDx=0;entryDy=0;endArrow=none;endFill=0;" parent="1" source="yKqNTpvzBy1KA8ICd-nT-5" target="yKqNTpvzBy1KA8ICd-nT-63" edge="1">
          <mxGeometry relative="1" as="geometry" />
        </mxCell>
        <mxCell id="yKqNTpvzBy1KA8ICd-nT-5" value="Connoisseur" style="rounded=0;whiteSpace=wrap;html=1;" parent="1" vertex="1">
          <mxGeometry x="775" y="260" width="70" height="30" as="geometry" />
        </mxCell>
        <mxCell id="yKqNTpvzBy1KA8ICd-nT-6" value="Novice" style="rounded=0;whiteSpace=wrap;html=1;" parent="1" vertex="1">
          <mxGeometry x="915" y="260" width="70" height="30" as="geometry" />
        </mxCell>
        <mxCell id="yKqNTpvzBy1KA8ICd-nT-8" value="" style="shape=link;html=1;rounded=0;entryX=1;entryY=0;entryDx=0;entryDy=0;exitX=0.5;exitY=1;exitDx=0;exitDy=0;" parent="1" source="yKqNTpvzBy1KA8ICd-nT-6" target="yKqNTpvzBy1KA8ICd-nT-3" edge="1">
          <mxGeometry width="100" relative="1" as="geometry">
            <mxPoint x="890" y="380" as="sourcePoint" />
            <mxPoint x="890" y="420" as="targetPoint" />
          </mxGeometry>
        </mxCell>
        <mxCell id="yKqNTpvzBy1KA8ICd-nT-9" value="" style="shape=link;html=1;rounded=0;entryX=0;entryY=0;entryDx=0;entryDy=0;exitX=0.5;exitY=1;exitDx=0;exitDy=0;" parent="1" source="yKqNTpvzBy1KA8ICd-nT-5" target="yKqNTpvzBy1KA8ICd-nT-3" edge="1">
          <mxGeometry width="100" relative="1" as="geometry">
            <mxPoint x="960" y="300" as="sourcePoint" />
            <mxPoint x="897" y="363" as="targetPoint" />
          </mxGeometry>
        </mxCell>
        <mxCell id="yKqNTpvzBy1KA8ICd-nT-85" style="edgeStyle=none;rounded=0;orthogonalLoop=1;jettySize=auto;html=1;exitX=0;exitY=0.75;exitDx=0;exitDy=0;entryX=1;entryY=0;entryDx=0;entryDy=0;endArrow=none;endFill=0;" parent="1" source="yKqNTpvzBy1KA8ICd-nT-10" target="yKqNTpvzBy1KA8ICd-nT-82" edge="1">
          <mxGeometry relative="1" as="geometry" />
        </mxCell>
        <mxCell id="yKqNTpvzBy1KA8ICd-nT-86" style="edgeStyle=none;rounded=0;orthogonalLoop=1;jettySize=auto;html=1;exitX=0.25;exitY=1;exitDx=0;exitDy=0;entryX=0.5;entryY=0;entryDx=0;entryDy=0;endArrow=none;endFill=0;" parent="1" source="yKqNTpvzBy1KA8ICd-nT-10" target="yKqNTpvzBy1KA8ICd-nT-81" edge="1">
          <mxGeometry relative="1" as="geometry" />
        </mxCell>
        <mxCell id="yKqNTpvzBy1KA8ICd-nT-87" style="edgeStyle=none;rounded=0;orthogonalLoop=1;jettySize=auto;html=1;exitX=0.75;exitY=1;exitDx=0;exitDy=0;entryX=0.344;entryY=0.01;entryDx=0;entryDy=0;entryPerimeter=0;endArrow=none;endFill=0;" parent="1" source="yKqNTpvzBy1KA8ICd-nT-10" target="yKqNTpvzBy1KA8ICd-nT-84" edge="1">
          <mxGeometry relative="1" as="geometry" />
        </mxCell>
        <mxCell id="yKqNTpvzBy1KA8ICd-nT-88" style="edgeStyle=none;rounded=0;orthogonalLoop=1;jettySize=auto;html=1;exitX=1;exitY=0.75;exitDx=0;exitDy=0;endArrow=none;endFill=0;" parent="1" source="yKqNTpvzBy1KA8ICd-nT-10" target="yKqNTpvzBy1KA8ICd-nT-83" edge="1">
          <mxGeometry relative="1" as="geometry" />
        </mxCell>
        <mxCell id="yKqNTpvzBy1KA8ICd-nT-10" value="Reviews" style="rounded=0;whiteSpace=wrap;html=1;" parent="1" vertex="1">
          <mxGeometry x="860" y="740" width="70" height="30" as="geometry" />
        </mxCell>
        <mxCell id="yKqNTpvzBy1KA8ICd-nT-96" style="edgeStyle=none;rounded=0;orthogonalLoop=1;jettySize=auto;html=1;exitX=0;exitY=0;exitDx=0;exitDy=0;entryX=1;entryY=1;entryDx=0;entryDy=0;endArrow=none;endFill=0;" parent="1" source="yKqNTpvzBy1KA8ICd-nT-12" target="yKqNTpvzBy1KA8ICd-nT-91" edge="1">
          <mxGeometry relative="1" as="geometry" />
        </mxCell>
        <mxCell id="yKqNTpvzBy1KA8ICd-nT-97" style="edgeStyle=none;rounded=0;orthogonalLoop=1;jettySize=auto;html=1;exitX=0.75;exitY=0;exitDx=0;exitDy=0;entryX=0;entryY=1;entryDx=0;entryDy=0;endArrow=none;endFill=0;" parent="1" source="yKqNTpvzBy1KA8ICd-nT-12" target="yKqNTpvzBy1KA8ICd-nT-92" edge="1">
          <mxGeometry relative="1" as="geometry" />
        </mxCell>
        <mxCell id="yKqNTpvzBy1KA8ICd-nT-98" style="edgeStyle=none;rounded=0;orthogonalLoop=1;jettySize=auto;html=1;exitX=1;exitY=0.25;exitDx=0;exitDy=0;endArrow=none;endFill=0;" parent="1" source="yKqNTpvzBy1KA8ICd-nT-12" target="yKqNTpvzBy1KA8ICd-nT-94" edge="1">
          <mxGeometry relative="1" as="geometry" />
        </mxCell>
        <mxCell id="yKqNTpvzBy1KA8ICd-nT-99" style="edgeStyle=none;rounded=0;orthogonalLoop=1;jettySize=auto;html=1;exitX=0;exitY=0.5;exitDx=0;exitDy=0;entryX=0.969;entryY=0.693;entryDx=0;entryDy=0;entryPerimeter=0;endArrow=none;endFill=0;" parent="1" source="yKqNTpvzBy1KA8ICd-nT-12" target="yKqNTpvzBy1KA8ICd-nT-90" edge="1">
          <mxGeometry relative="1" as="geometry" />
        </mxCell>
        <mxCell id="yKqNTpvzBy1KA8ICd-nT-100" style="edgeStyle=none;rounded=0;orthogonalLoop=1;jettySize=auto;html=1;exitX=0;exitY=1;exitDx=0;exitDy=0;entryX=1;entryY=0;entryDx=0;entryDy=0;endArrow=none;endFill=0;" parent="1" source="yKqNTpvzBy1KA8ICd-nT-12" target="yKqNTpvzBy1KA8ICd-nT-89" edge="1">
          <mxGeometry relative="1" as="geometry" />
        </mxCell>
        <mxCell id="yKqNTpvzBy1KA8ICd-nT-161" style="edgeStyle=none;rounded=0;orthogonalLoop=1;jettySize=auto;html=1;exitX=1;exitY=1;exitDx=0;exitDy=0;endArrow=none;endFill=0;" parent="1" source="yKqNTpvzBy1KA8ICd-nT-12" target="yKqNTpvzBy1KA8ICd-nT-159" edge="1">
          <mxGeometry relative="1" as="geometry" />
        </mxCell>
        <mxCell id="yKqNTpvzBy1KA8ICd-nT-12" value="Wine" style="rounded=0;whiteSpace=wrap;html=1;" parent="1" vertex="1">
          <mxGeometry x="410" y="740" width="70" height="30" as="geometry" />
        </mxCell>
        <mxCell id="yKqNTpvzBy1KA8ICd-nT-136" style="edgeStyle=none;rounded=0;orthogonalLoop=1;jettySize=auto;html=1;exitX=0.75;exitY=0;exitDx=0;exitDy=0;entryX=0;entryY=1;entryDx=0;entryDy=0;endArrow=none;endFill=0;" parent="1" source="yKqNTpvzBy1KA8ICd-nT-14" target="yKqNTpvzBy1KA8ICd-nT-125" edge="1">
          <mxGeometry relative="1" as="geometry" />
        </mxCell>
        <mxCell id="yKqNTpvzBy1KA8ICd-nT-137" style="edgeStyle=none;rounded=0;orthogonalLoop=1;jettySize=auto;html=1;exitX=0;exitY=0;exitDx=0;exitDy=0;entryX=0.938;entryY=0.744;entryDx=0;entryDy=0;entryPerimeter=0;endArrow=none;endFill=0;" parent="1" source="yKqNTpvzBy1KA8ICd-nT-14" target="yKqNTpvzBy1KA8ICd-nT-124" edge="1">
          <mxGeometry relative="1" as="geometry" />
        </mxCell>
        <mxCell id="yKqNTpvzBy1KA8ICd-nT-138" style="edgeStyle=none;rounded=0;orthogonalLoop=1;jettySize=auto;html=1;exitX=0;exitY=0.75;exitDx=0;exitDy=0;entryX=1;entryY=0.5;entryDx=0;entryDy=0;endArrow=none;endFill=0;" parent="1" source="yKqNTpvzBy1KA8ICd-nT-14" target="yKqNTpvzBy1KA8ICd-nT-123" edge="1">
          <mxGeometry relative="1" as="geometry" />
        </mxCell>
        <mxCell id="yKqNTpvzBy1KA8ICd-nT-141" style="edgeStyle=none;rounded=0;orthogonalLoop=1;jettySize=auto;html=1;exitX=1;exitY=0.75;exitDx=0;exitDy=0;entryX=0;entryY=0;entryDx=0;entryDy=0;endArrow=none;endFill=0;" parent="1" source="yKqNTpvzBy1KA8ICd-nT-14" target="yKqNTpvzBy1KA8ICd-nT-139" edge="1">
          <mxGeometry relative="1" as="geometry" />
        </mxCell>
        <mxCell id="yKqNTpvzBy1KA8ICd-nT-143" style="edgeStyle=none;rounded=0;orthogonalLoop=1;jettySize=auto;html=1;exitX=0.25;exitY=1;exitDx=0;exitDy=0;entryX=0.798;entryY=0.128;entryDx=0;entryDy=0;entryPerimeter=0;endArrow=none;endFill=0;" parent="1" source="yKqNTpvzBy1KA8ICd-nT-14" target="yKqNTpvzBy1KA8ICd-nT-142" edge="1">
          <mxGeometry relative="1" as="geometry" />
        </mxCell>
        <mxCell id="yKqNTpvzBy1KA8ICd-nT-147" style="edgeStyle=none;rounded=0;orthogonalLoop=1;jettySize=auto;html=1;exitX=0.374;exitY=0.973;exitDx=0;exitDy=0;exitPerimeter=0;endArrow=none;endFill=0;" parent="1" source="yKqNTpvzBy1KA8ICd-nT-14" target="yKqNTpvzBy1KA8ICd-nT-146" edge="1">
          <mxGeometry relative="1" as="geometry" />
        </mxCell>
        <mxCell id="yKqNTpvzBy1KA8ICd-nT-14" value="Winery" style="rounded=0;whiteSpace=wrap;html=1;" parent="1" vertex="1">
          <mxGeometry x="-150" y="860" width="70" height="30" as="geometry" />
        </mxCell>
        <mxCell id="yKqNTpvzBy1KA8ICd-nT-47" style="edgeStyle=none;rounded=0;orthogonalLoop=1;jettySize=auto;html=1;exitX=0;exitY=0.5;exitDx=0;exitDy=0;entryX=0.938;entryY=0.277;entryDx=0;entryDy=0;endArrow=none;endFill=0;entryPerimeter=0;" parent="1" source="yKqNTpvzBy1KA8ICd-nT-15" target="yKqNTpvzBy1KA8ICd-nT-45" edge="1">
          <mxGeometry relative="1" as="geometry" />
        </mxCell>
        <mxCell id="yKqNTpvzBy1KA8ICd-nT-48" style="edgeStyle=none;rounded=0;orthogonalLoop=1;jettySize=auto;html=1;exitX=0.25;exitY=0;exitDx=0;exitDy=0;entryX=0.927;entryY=0.777;entryDx=0;entryDy=0;endArrow=none;endFill=0;entryPerimeter=0;" parent="1" source="yKqNTpvzBy1KA8ICd-nT-15" target="yKqNTpvzBy1KA8ICd-nT-46" edge="1">
          <mxGeometry relative="1" as="geometry" />
        </mxCell>
        <mxCell id="yKqNTpvzBy1KA8ICd-nT-50" style="edgeStyle=none;rounded=0;orthogonalLoop=1;jettySize=auto;html=1;exitX=0.75;exitY=0;exitDx=0;exitDy=0;entryX=0.228;entryY=0.936;entryDx=0;entryDy=0;endArrow=none;endFill=0;entryPerimeter=0;" parent="1" source="yKqNTpvzBy1KA8ICd-nT-15" target="yKqNTpvzBy1KA8ICd-nT-49" edge="1">
          <mxGeometry relative="1" as="geometry" />
        </mxCell>
        <mxCell id="yKqNTpvzBy1KA8ICd-nT-52" style="edgeStyle=none;rounded=0;orthogonalLoop=1;jettySize=auto;html=1;exitX=1;exitY=0.25;exitDx=0;exitDy=0;entryX=0.048;entryY=0.658;entryDx=0;entryDy=0;entryPerimeter=0;endArrow=none;endFill=0;" parent="1" source="yKqNTpvzBy1KA8ICd-nT-15" target="yKqNTpvzBy1KA8ICd-nT-51" edge="1">
          <mxGeometry relative="1" as="geometry" />
        </mxCell>
        <mxCell id="yKqNTpvzBy1KA8ICd-nT-55" style="edgeStyle=none;rounded=0;orthogonalLoop=1;jettySize=auto;html=1;exitX=1;exitY=0.75;exitDx=0;exitDy=0;endArrow=none;endFill=0;" parent="1" source="yKqNTpvzBy1KA8ICd-nT-15" target="yKqNTpvzBy1KA8ICd-nT-54" edge="1">
          <mxGeometry relative="1" as="geometry" />
        </mxCell>
        <mxCell id="yKqNTpvzBy1KA8ICd-nT-15" value="Region" style="rounded=0;whiteSpace=wrap;html=1;" parent="1" vertex="1">
          <mxGeometry x="-170" y="467.5" width="70" height="30" as="geometry" />
        </mxCell>
        <mxCell id="yKqNTpvzBy1KA8ICd-nT-151" style="edgeStyle=none;rounded=0;orthogonalLoop=1;jettySize=auto;html=1;exitX=0.25;exitY=1;exitDx=0;exitDy=0;endArrow=none;endFill=0;" parent="1" source="yKqNTpvzBy1KA8ICd-nT-16" target="yKqNTpvzBy1KA8ICd-nT-150" edge="1">
          <mxGeometry relative="1" as="geometry" />
        </mxCell>
        <mxCell id="yKqNTpvzBy1KA8ICd-nT-153" style="edgeStyle=none;rounded=0;orthogonalLoop=1;jettySize=auto;html=1;exitX=0.75;exitY=1;exitDx=0;exitDy=0;entryX=0.253;entryY=0.072;entryDx=0;entryDy=0;entryPerimeter=0;endArrow=none;endFill=0;" parent="1" source="yKqNTpvzBy1KA8ICd-nT-16" target="yKqNTpvzBy1KA8ICd-nT-152" edge="1">
          <mxGeometry relative="1" as="geometry" />
        </mxCell>
        <mxCell id="yKqNTpvzBy1KA8ICd-nT-16" value="Inventory" style="rounded=0;whiteSpace=wrap;html=1;" parent="1" vertex="1">
          <mxGeometry x="-150" y="1130" width="70" height="30" as="geometry" />
        </mxCell>
        <mxCell id="yKqNTpvzBy1KA8ICd-nT-17" value="Red" style="rounded=0;whiteSpace=wrap;html=1;" parent="1" vertex="1">
          <mxGeometry x="210" y="910" width="70" height="30" as="geometry" />
        </mxCell>
        <mxCell id="yKqNTpvzBy1KA8ICd-nT-102" style="edgeStyle=none;rounded=0;orthogonalLoop=1;jettySize=auto;html=1;exitX=0.5;exitY=1;exitDx=0;exitDy=0;endArrow=none;endFill=0;" parent="1" source="yKqNTpvzBy1KA8ICd-nT-18" target="yKqNTpvzBy1KA8ICd-nT-101" edge="1">
          <mxGeometry relative="1" as="geometry" />
        </mxCell>
        <mxCell id="yKqNTpvzBy1KA8ICd-nT-18" value="Dessert" style="rounded=0;whiteSpace=wrap;html=1;" parent="1" vertex="1">
          <mxGeometry x="530" y="910" width="70" height="30" as="geometry" />
        </mxCell>
        <mxCell id="yKqNTpvzBy1KA8ICd-nT-106" style="edgeStyle=none;rounded=0;orthogonalLoop=1;jettySize=auto;html=1;exitX=0.75;exitY=1;exitDx=0;exitDy=0;entryX=0.281;entryY=0.043;entryDx=0;entryDy=0;entryPerimeter=0;endArrow=none;endFill=0;" parent="1" source="yKqNTpvzBy1KA8ICd-nT-19" target="yKqNTpvzBy1KA8ICd-nT-105" edge="1">
          <mxGeometry relative="1" as="geometry" />
        </mxCell>
        <mxCell id="yKqNTpvzBy1KA8ICd-nT-19" value="Fortified" style="rounded=0;whiteSpace=wrap;html=1;" parent="1" vertex="1">
          <mxGeometry x="610" y="910" width="70" height="30" as="geometry" />
        </mxCell>
        <mxCell id="yKqNTpvzBy1KA8ICd-nT-20" value="White" style="rounded=0;whiteSpace=wrap;html=1;" parent="1" vertex="1">
          <mxGeometry x="290" y="910" width="70" height="30" as="geometry" />
        </mxCell>
        <mxCell id="yKqNTpvzBy1KA8ICd-nT-21" value="Rosé" style="rounded=0;whiteSpace=wrap;html=1;" parent="1" vertex="1">
          <mxGeometry x="370" y="910" width="70" height="30" as="geometry" />
        </mxCell>
        <mxCell id="yKqNTpvzBy1KA8ICd-nT-22" value="Sparkling" style="rounded=0;whiteSpace=wrap;html=1;" parent="1" vertex="1">
          <mxGeometry x="450" y="910" width="70" height="30" as="geometry" />
        </mxCell>
        <mxCell id="yKqNTpvzBy1KA8ICd-nT-115" style="edgeStyle=none;rounded=0;orthogonalLoop=1;jettySize=auto;html=1;exitX=0;exitY=0;exitDx=0;exitDy=0;entryX=1;entryY=0.5;entryDx=0;entryDy=0;endArrow=none;endFill=0;" parent="1" source="yKqNTpvzBy1KA8ICd-nT-24" target="yKqNTpvzBy1KA8ICd-nT-109" edge="1">
          <mxGeometry relative="1" as="geometry" />
        </mxCell>
        <mxCell id="yKqNTpvzBy1KA8ICd-nT-116" value="" style="edgeStyle=none;rounded=0;orthogonalLoop=1;jettySize=auto;html=1;endArrow=none;endFill=0;" parent="1" source="yKqNTpvzBy1KA8ICd-nT-24" target="yKqNTpvzBy1KA8ICd-nT-110" edge="1">
          <mxGeometry relative="1" as="geometry" />
        </mxCell>
        <mxCell id="yKqNTpvzBy1KA8ICd-nT-117" style="edgeStyle=none;rounded=0;orthogonalLoop=1;jettySize=auto;html=1;exitX=0.25;exitY=1;exitDx=0;exitDy=0;endArrow=none;endFill=0;" parent="1" source="yKqNTpvzBy1KA8ICd-nT-24" target="yKqNTpvzBy1KA8ICd-nT-111" edge="1">
          <mxGeometry relative="1" as="geometry" />
        </mxCell>
        <mxCell id="yKqNTpvzBy1KA8ICd-nT-118" style="edgeStyle=none;rounded=0;orthogonalLoop=1;jettySize=auto;html=1;exitX=0.75;exitY=1;exitDx=0;exitDy=0;endArrow=none;endFill=0;" parent="1" source="yKqNTpvzBy1KA8ICd-nT-24" target="yKqNTpvzBy1KA8ICd-nT-114" edge="1">
          <mxGeometry relative="1" as="geometry" />
        </mxCell>
        <mxCell id="yKqNTpvzBy1KA8ICd-nT-121" style="edgeStyle=none;rounded=0;orthogonalLoop=1;jettySize=auto;html=1;exitX=1;exitY=0;exitDx=0;exitDy=0;entryX=0.01;entryY=0.693;entryDx=0;entryDy=0;entryPerimeter=0;endArrow=none;endFill=0;" parent="1" source="yKqNTpvzBy1KA8ICd-nT-24" target="yKqNTpvzBy1KA8ICd-nT-112" edge="1">
          <mxGeometry relative="1" as="geometry" />
        </mxCell>
        <mxCell id="yKqNTpvzBy1KA8ICd-nT-122" style="edgeStyle=none;rounded=0;orthogonalLoop=1;jettySize=auto;html=1;exitX=1;exitY=0.75;exitDx=0;exitDy=0;entryX=0;entryY=0.5;entryDx=0;entryDy=0;endArrow=none;endFill=0;" parent="1" source="yKqNTpvzBy1KA8ICd-nT-24" target="yKqNTpvzBy1KA8ICd-nT-113" edge="1">
          <mxGeometry relative="1" as="geometry" />
        </mxCell>
        <mxCell id="yKqNTpvzBy1KA8ICd-nT-24" value="Quality" style="rounded=0;whiteSpace=wrap;html=1;" parent="1" vertex="1">
          <mxGeometry x="390" y="420" width="70" height="30" as="geometry" />
        </mxCell>
        <mxCell id="yKqNTpvzBy1KA8ICd-nT-172" value="" style="edgeStyle=none;rounded=0;orthogonalLoop=1;jettySize=auto;html=1;endArrow=none;endFill=0;" parent="1" source="yKqNTpvzBy1KA8ICd-nT-31" target="yKqNTpvzBy1KA8ICd-nT-162" edge="1">
          <mxGeometry relative="1" as="geometry" />
        </mxCell>
        <mxCell id="yKqNTpvzBy1KA8ICd-nT-31" value="Quality Red" style="rounded=0;whiteSpace=wrap;html=1;" parent="1" vertex="1">
          <mxGeometry x="190" y="280" width="70" height="30" as="geometry" />
        </mxCell>
        <mxCell id="yKqNTpvzBy1KA8ICd-nT-32" value="Quality Dessert" style="rounded=0;whiteSpace=wrap;html=1;" parent="1" vertex="1">
          <mxGeometry x="510" y="280" width="70" height="30" as="geometry" />
        </mxCell>
        <mxCell id="yKqNTpvzBy1KA8ICd-nT-33" value="Quality Fortified" style="rounded=0;whiteSpace=wrap;html=1;" parent="1" vertex="1">
          <mxGeometry x="590" y="280" width="70" height="30" as="geometry" />
        </mxCell>
        <mxCell id="yKqNTpvzBy1KA8ICd-nT-34" value="Quality White" style="rounded=0;whiteSpace=wrap;html=1;" parent="1" vertex="1">
          <mxGeometry x="270" y="280" width="70" height="30" as="geometry" />
        </mxCell>
        <mxCell id="yKqNTpvzBy1KA8ICd-nT-171" value="" style="edgeStyle=none;rounded=0;orthogonalLoop=1;jettySize=auto;html=1;endArrow=none;endFill=0;" parent="1" source="yKqNTpvzBy1KA8ICd-nT-35" target="yKqNTpvzBy1KA8ICd-nT-165" edge="1">
          <mxGeometry relative="1" as="geometry" />
        </mxCell>
        <mxCell id="yKqNTpvzBy1KA8ICd-nT-35" value="Quality Rosé" style="rounded=0;whiteSpace=wrap;html=1;" parent="1" vertex="1">
          <mxGeometry x="350" y="280" width="70" height="30" as="geometry" />
        </mxCell>
        <mxCell id="yKqNTpvzBy1KA8ICd-nT-36" value="Quality Sparkling" style="rounded=0;whiteSpace=wrap;html=1;" parent="1" vertex="1">
          <mxGeometry x="430" y="280" width="70" height="30" as="geometry" />
        </mxCell>
        <mxCell id="yKqNTpvzBy1KA8ICd-nT-45" value="&lt;u class=&quot;custom-cursor-default-hover&quot;&gt;Region ID&lt;/u&gt;" style="ellipse;whiteSpace=wrap;html=1;" parent="1" vertex="1">
          <mxGeometry x="-400" y="492.5" width="80" height="50" as="geometry" />
        </mxCell>
        <mxCell id="yKqNTpvzBy1KA8ICd-nT-46" value="&lt;span class=&quot;custom-cursor-default-hover&quot;&gt;Location Name&lt;/span&gt;" style="ellipse;whiteSpace=wrap;html=1;" parent="1" vertex="1">
          <mxGeometry x="-320" y="360" width="80" height="50" as="geometry" />
        </mxCell>
        <mxCell id="yKqNTpvzBy1KA8ICd-nT-49" value="&lt;span class=&quot;custom-cursor-default-hover&quot;&gt;Climate&lt;/span&gt;" style="ellipse;whiteSpace=wrap;html=1;" parent="1" vertex="1">
          <mxGeometry x="-110" y="320" width="80" height="50" as="geometry" />
        </mxCell>
        <mxCell id="yKqNTpvzBy1KA8ICd-nT-51" value="&lt;span class=&quot;custom-cursor-default-hover&quot;&gt;Continent&lt;/span&gt;" style="ellipse;whiteSpace=wrap;html=1;" parent="1" vertex="1">
          <mxGeometry x="10" y="387.5" width="80" height="50" as="geometry" />
        </mxCell>
        <mxCell id="yKqNTpvzBy1KA8ICd-nT-77" style="edgeStyle=none;rounded=0;orthogonalLoop=1;jettySize=auto;html=1;exitX=0.25;exitY=0;exitDx=0;exitDy=0;entryX=0.5;entryY=1;entryDx=0;entryDy=0;endArrow=none;endFill=0;" parent="1" source="yKqNTpvzBy1KA8ICd-nT-53" target="yKqNTpvzBy1KA8ICd-nT-76" edge="1">
          <mxGeometry relative="1" as="geometry" />
        </mxCell>
        <mxCell id="yKqNTpvzBy1KA8ICd-nT-79" style="edgeStyle=none;rounded=0;orthogonalLoop=1;jettySize=auto;html=1;exitX=0.75;exitY=0;exitDx=0;exitDy=0;entryX=0.229;entryY=0.91;entryDx=0;entryDy=0;entryPerimeter=0;endArrow=none;endFill=0;" parent="1" source="yKqNTpvzBy1KA8ICd-nT-53" target="yKqNTpvzBy1KA8ICd-nT-78" edge="1">
          <mxGeometry relative="1" as="geometry" />
        </mxCell>
        <mxCell id="yKqNTpvzBy1KA8ICd-nT-53" value="Wine Club Membership" style="rounded=0;whiteSpace=wrap;html=1;" parent="1" vertex="1">
          <mxGeometry x="1200" y="410" width="70" height="30" as="geometry" />
        </mxCell>
        <mxCell id="yKqNTpvzBy1KA8ICd-nT-54" value="&lt;span class=&quot;custom-cursor-default-hover&quot;&gt;Country&lt;/span&gt;" style="ellipse;whiteSpace=wrap;html=1;" parent="1" vertex="1">
          <mxGeometry x="10" y="467.5" width="80" height="50" as="geometry" />
        </mxCell>
        <mxCell id="yKqNTpvzBy1KA8ICd-nT-156" style="edgeStyle=none;rounded=0;orthogonalLoop=1;jettySize=auto;html=1;exitX=0;exitY=0.5;exitDx=0;exitDy=0;entryX=1;entryY=0.5;entryDx=0;entryDy=0;endArrow=none;endFill=0;" parent="1" source="yKqNTpvzBy1KA8ICd-nT-60" target="yKqNTpvzBy1KA8ICd-nT-155" edge="1">
          <mxGeometry relative="1" as="geometry" />
        </mxCell>
        <mxCell id="yKqNTpvzBy1KA8ICd-nT-157" style="edgeStyle=none;rounded=0;orthogonalLoop=1;jettySize=auto;html=1;exitX=1;exitY=0.25;exitDx=0;exitDy=0;endArrow=none;endFill=0;" parent="1" source="yKqNTpvzBy1KA8ICd-nT-60" target="yKqNTpvzBy1KA8ICd-nT-154" edge="1">
          <mxGeometry relative="1" as="geometry" />
        </mxCell>
        <mxCell id="yKqNTpvzBy1KA8ICd-nT-160" style="edgeStyle=none;rounded=0;orthogonalLoop=1;jettySize=auto;html=1;exitX=0.5;exitY=1;exitDx=0;exitDy=0;entryX=0.5;entryY=0;entryDx=0;entryDy=0;endArrow=none;endFill=0;" parent="1" source="yKqNTpvzBy1KA8ICd-nT-60" target="yKqNTpvzBy1KA8ICd-nT-158" edge="1">
          <mxGeometry relative="1" as="geometry" />
        </mxCell>
        <mxCell id="yKqNTpvzBy1KA8ICd-nT-60" value="Grape Varietal" style="rounded=0;whiteSpace=wrap;html=1;" parent="1" vertex="1">
          <mxGeometry x="-180" y="660" width="70" height="30" as="geometry" />
        </mxCell>
        <mxCell id="yKqNTpvzBy1KA8ICd-nT-61" value="&lt;span class=&quot;custom-cursor-default-hover&quot;&gt;&lt;u&gt;UserID&lt;/u&gt;&lt;/span&gt;" style="ellipse;whiteSpace=wrap;html=1;" parent="1" vertex="1">
          <mxGeometry x="730" y="390" width="80" height="50" as="geometry" />
        </mxCell>
        <mxCell id="yKqNTpvzBy1KA8ICd-nT-62" value="&lt;span class=&quot;custom-cursor-default-hover&quot;&gt;&lt;u&gt;National ID&lt;/u&gt;&lt;/span&gt;" style="ellipse;whiteSpace=wrap;html=1;" parent="1" vertex="1">
          <mxGeometry x="755" y="460" width="80" height="50" as="geometry" />
        </mxCell>
        <mxCell id="yKqNTpvzBy1KA8ICd-nT-63" value="&lt;span class=&quot;custom-cursor-default-hover&quot;&gt;&lt;u&gt;CertificateID&lt;/u&gt;&lt;/span&gt;" style="ellipse;whiteSpace=wrap;html=1;" parent="1" vertex="1">
          <mxGeometry x="695" y="150" width="80" height="50" as="geometry" />
        </mxCell>
        <mxCell id="yKqNTpvzBy1KA8ICd-nT-65" value="" style="shape=requiredInterface;html=1;verticalLabelPosition=bottom;sketch=0;rotation=-50;" parent="1" vertex="1">
          <mxGeometry x="915" y="310" width="10" height="20" as="geometry" />
        </mxCell>
        <mxCell id="yKqNTpvzBy1KA8ICd-nT-67" value="" style="shape=requiredInterface;html=1;verticalLabelPosition=bottom;sketch=0;rotation=-133;" parent="1" vertex="1">
          <mxGeometry x="835" y="310" width="10" height="20" as="geometry" />
        </mxCell>
        <mxCell id="yKqNTpvzBy1KA8ICd-nT-68" value="&lt;span class=&quot;custom-cursor-default-hover&quot;&gt;Name&lt;/span&gt;" style="ellipse;whiteSpace=wrap;html=1;" parent="1" vertex="1">
          <mxGeometry x="885" y="492.5" width="80" height="50" as="geometry" />
        </mxCell>
        <mxCell id="yKqNTpvzBy1KA8ICd-nT-69" value="&lt;span class=&quot;custom-cursor-default-hover&quot;&gt;Age&lt;/span&gt;" style="ellipse;whiteSpace=wrap;html=1;dashed=1;" parent="1" vertex="1">
          <mxGeometry x="985" y="467.5" width="80" height="50" as="geometry" />
        </mxCell>
        <mxCell id="yKqNTpvzBy1KA8ICd-nT-70" value="&lt;span class=&quot;custom-cursor-default-hover&quot;&gt;Email&lt;/span&gt;" style="ellipse;whiteSpace=wrap;html=1;" parent="1" vertex="1">
          <mxGeometry x="950" y="350" width="80" height="50" as="geometry" />
        </mxCell>
        <mxCell id="yKqNTpvzBy1KA8ICd-nT-76" value="&lt;span class=&quot;custom-cursor-default-hover&quot;&gt;&lt;u&gt;National ID&lt;/u&gt;&lt;/span&gt;" style="ellipse;whiteSpace=wrap;html=1;" parent="1" vertex="1">
          <mxGeometry x="1160" y="300" width="80" height="50" as="geometry" />
        </mxCell>
        <mxCell id="yKqNTpvzBy1KA8ICd-nT-78" value="&lt;span class=&quot;custom-cursor-default-hover&quot;&gt;&lt;u&gt;Club Name&lt;/u&gt;&lt;/span&gt;" style="ellipse;whiteSpace=wrap;html=1;" parent="1" vertex="1">
          <mxGeometry x="1280" y="310" width="80" height="50" as="geometry" />
        </mxCell>
        <mxCell id="yKqNTpvzBy1KA8ICd-nT-81" value="&lt;span class=&quot;custom-cursor-default-hover&quot;&gt;Rating&lt;/span&gt;" style="ellipse;whiteSpace=wrap;html=1;" parent="1" vertex="1">
          <mxGeometry x="830" y="850" width="80" height="50" as="geometry" />
        </mxCell>
        <mxCell id="yKqNTpvzBy1KA8ICd-nT-82" value="&lt;span class=&quot;custom-cursor-default-hover&quot;&gt;Comment&lt;/span&gt;" style="ellipse;whiteSpace=wrap;html=1;" parent="1" vertex="1">
          <mxGeometry x="740" y="780" width="80" height="50" as="geometry" />
        </mxCell>
        <mxCell id="yKqNTpvzBy1KA8ICd-nT-83" value="&lt;span class=&quot;custom-cursor-default-hover&quot;&gt;&lt;u&gt;UserID&lt;/u&gt;&lt;/span&gt;" style="ellipse;whiteSpace=wrap;html=1;" parent="1" vertex="1">
          <mxGeometry x="1020" y="790" width="80" height="50" as="geometry" />
        </mxCell>
        <mxCell id="yKqNTpvzBy1KA8ICd-nT-84" value="&lt;span class=&quot;custom-cursor-default-hover&quot;&gt;&lt;u&gt;WineID&lt;/u&gt;&lt;/span&gt;" style="ellipse;whiteSpace=wrap;html=1;" parent="1" vertex="1">
          <mxGeometry x="930" y="850" width="80" height="50" as="geometry" />
        </mxCell>
        <mxCell id="yKqNTpvzBy1KA8ICd-nT-89" value="&lt;span class=&quot;custom-cursor-default-hover&quot;&gt;Name&lt;/span&gt;" style="ellipse;whiteSpace=wrap;html=1;" parent="1" vertex="1">
          <mxGeometry x="250" y="790" width="80" height="50" as="geometry" />
        </mxCell>
        <mxCell id="yKqNTpvzBy1KA8ICd-nT-90" value="&lt;span class=&quot;custom-cursor-default-hover&quot;&gt;&lt;u&gt;WineID&lt;/u&gt;&lt;/span&gt;" style="ellipse;whiteSpace=wrap;html=1;" parent="1" vertex="1">
          <mxGeometry x="220" y="660" width="80" height="50" as="geometry" />
        </mxCell>
        <mxCell id="yKqNTpvzBy1KA8ICd-nT-91" value="&lt;span class=&quot;custom-cursor-default-hover&quot;&gt;&lt;u&gt;WineryID&lt;/u&gt;&lt;/span&gt;" style="ellipse;whiteSpace=wrap;html=1;" parent="1" vertex="1">
          <mxGeometry x="300" y="610" width="80" height="50" as="geometry" />
        </mxCell>
        <mxCell id="yKqNTpvzBy1KA8ICd-nT-92" value="&lt;span class=&quot;custom-cursor-default-hover&quot;&gt;Price&lt;/span&gt;" style="ellipse;whiteSpace=wrap;html=1;" parent="1" vertex="1">
          <mxGeometry x="490" y="600" width="80" height="50" as="geometry" />
        </mxCell>
        <mxCell id="yKqNTpvzBy1KA8ICd-nT-94" value="&lt;span class=&quot;custom-cursor-default-hover&quot;&gt;Bottle Size&lt;/span&gt;" style="ellipse;whiteSpace=wrap;html=1;" parent="1" vertex="1">
          <mxGeometry x="570" y="660" width="80" height="50" as="geometry" />
        </mxCell>
        <mxCell id="yKqNTpvzBy1KA8ICd-nT-101" value="&lt;span class=&quot;custom-cursor-default-hover&quot;&gt;Style&lt;/span&gt;" style="ellipse;whiteSpace=wrap;html=1;" parent="1" vertex="1">
          <mxGeometry x="550" y="1020" width="80" height="50" as="geometry" />
        </mxCell>
        <mxCell id="yKqNTpvzBy1KA8ICd-nT-105" value="&lt;span class=&quot;custom-cursor-default-hover&quot;&gt;Spirit&lt;/span&gt;" style="ellipse;whiteSpace=wrap;html=1;" parent="1" vertex="1">
          <mxGeometry x="710" y="1010" width="80" height="50" as="geometry" />
        </mxCell>
        <mxCell id="yKqNTpvzBy1KA8ICd-nT-109" value="&lt;span class=&quot;custom-cursor-default-hover&quot;&gt;Alcohol content&lt;/span&gt;" style="ellipse;whiteSpace=wrap;html=1;" parent="1" vertex="1">
          <mxGeometry x="220" y="370" width="80" height="50" as="geometry" />
        </mxCell>
        <mxCell id="yKqNTpvzBy1KA8ICd-nT-110" value="&lt;span class=&quot;custom-cursor-default-hover&quot;&gt;Density&lt;/span&gt;" style="ellipse;whiteSpace=wrap;html=1;" parent="1" vertex="1">
          <mxGeometry x="210" y="440" width="80" height="50" as="geometry" />
        </mxCell>
        <mxCell id="yKqNTpvzBy1KA8ICd-nT-111" value="&lt;span class=&quot;custom-cursor-default-hover&quot;&gt;pH&lt;/span&gt;" style="ellipse;whiteSpace=wrap;html=1;" parent="1" vertex="1">
          <mxGeometry x="280" y="500" width="80" height="50" as="geometry" />
        </mxCell>
        <mxCell id="yKqNTpvzBy1KA8ICd-nT-112" value="&lt;span class=&quot;custom-cursor-default-hover&quot;&gt;Residual Sugar&lt;/span&gt;" style="ellipse;whiteSpace=wrap;html=1;" parent="1" vertex="1">
          <mxGeometry x="525" y="370" width="80" height="50" as="geometry" />
        </mxCell>
        <mxCell id="yKqNTpvzBy1KA8ICd-nT-113" value="Fixed Acidity" style="ellipse;whiteSpace=wrap;html=1;" parent="1" vertex="1">
          <mxGeometry x="540" y="440" width="80" height="50" as="geometry" />
        </mxCell>
        <mxCell id="yKqNTpvzBy1KA8ICd-nT-114" value="&lt;span class=&quot;custom-cursor-default-hover&quot;&gt;&lt;u&gt;WineID&lt;/u&gt;&lt;/span&gt;" style="ellipse;whiteSpace=wrap;html=1;" parent="1" vertex="1">
          <mxGeometry x="480" y="500" width="80" height="50" as="geometry" />
        </mxCell>
        <mxCell id="yKqNTpvzBy1KA8ICd-nT-123" value="&lt;span class=&quot;custom-cursor-default-hover&quot;&gt;&lt;u&gt;WineryID&lt;/u&gt;&lt;/span&gt;" style="ellipse;whiteSpace=wrap;html=1;" parent="1" vertex="1">
          <mxGeometry x="-330" y="860" width="80" height="50" as="geometry" />
        </mxCell>
        <mxCell id="yKqNTpvzBy1KA8ICd-nT-124" value="&lt;span class=&quot;custom-cursor-default-hover&quot;&gt;&lt;u&gt;RegionID&lt;/u&gt;&lt;/span&gt;" style="ellipse;whiteSpace=wrap;html=1;" parent="1" vertex="1">
          <mxGeometry x="-300" y="780" width="80" height="50" as="geometry" />
        </mxCell>
        <mxCell id="yKqNTpvzBy1KA8ICd-nT-125" value="&lt;span class=&quot;custom-cursor-default-hover&quot;&gt;Name&lt;/span&gt;" style="ellipse;whiteSpace=wrap;html=1;" parent="1" vertex="1">
          <mxGeometry x="-90" y="770" width="80" height="50" as="geometry" />
        </mxCell>
        <mxCell id="yKqNTpvzBy1KA8ICd-nT-139" value="&lt;span class=&quot;custom-cursor-default-hover&quot;&gt;Production size&lt;/span&gt;" style="ellipse;whiteSpace=wrap;html=1;" parent="1" vertex="1">
          <mxGeometry x="10" y="900" width="80" height="50" as="geometry" />
        </mxCell>
        <mxCell id="yKqNTpvzBy1KA8ICd-nT-142" value="&lt;span class=&quot;custom-cursor-default-hover&quot;&gt;Winemaker&lt;/span&gt;" style="ellipse;whiteSpace=wrap;html=1;" parent="1" vertex="1">
          <mxGeometry x="-310" y="930" width="80" height="50" as="geometry" />
        </mxCell>
        <mxCell id="yKqNTpvzBy1KA8ICd-nT-146" value="&lt;span class=&quot;custom-cursor-default-hover&quot;&gt;StreetName&lt;/span&gt;" style="ellipse;whiteSpace=wrap;html=1;" parent="1" vertex="1">
          <mxGeometry x="-250" y="1000" width="80" height="50" as="geometry" />
        </mxCell>
        <mxCell id="yKqNTpvzBy1KA8ICd-nT-148" style="edgeStyle=none;rounded=0;orthogonalLoop=1;jettySize=auto;html=1;endArrow=none;endFill=0;exitX=0.75;exitY=1;exitDx=0;exitDy=0;" parent="1" source="yKqNTpvzBy1KA8ICd-nT-14" target="yKqNTpvzBy1KA8ICd-nT-149" edge="1">
          <mxGeometry relative="1" as="geometry">
            <mxPoint x="-110" y="890" as="sourcePoint" />
          </mxGeometry>
        </mxCell>
        <mxCell id="yKqNTpvzBy1KA8ICd-nT-149" value="&lt;span class=&quot;custom-cursor-default-hover&quot;&gt;PlotNumber&lt;/span&gt;" style="ellipse;whiteSpace=wrap;html=1;" parent="1" vertex="1">
          <mxGeometry x="-40" y="1000" width="80" height="50" as="geometry" />
        </mxCell>
        <mxCell id="yKqNTpvzBy1KA8ICd-nT-150" value="&lt;span class=&quot;custom-cursor-default-hover&quot;&gt;Number of bottles&lt;/span&gt;" style="ellipse;whiteSpace=wrap;html=1;" parent="1" vertex="1">
          <mxGeometry x="-270" y="1220" width="80" height="50" as="geometry" />
        </mxCell>
        <mxCell id="yKqNTpvzBy1KA8ICd-nT-152" value="&lt;span class=&quot;custom-cursor-default-hover&quot;&gt;&lt;u&gt;WineryID&lt;/u&gt;&lt;/span&gt;" style="ellipse;whiteSpace=wrap;html=1;" parent="1" vertex="1">
          <mxGeometry x="-60" y="1220" width="80" height="50" as="geometry" />
        </mxCell>
        <mxCell id="yKqNTpvzBy1KA8ICd-nT-154" value="&lt;span class=&quot;custom-cursor-default-hover&quot;&gt;Name&lt;/span&gt;" style="ellipse;whiteSpace=wrap;html=1;" parent="1" vertex="1">
          <mxGeometry x="-20" y="570" width="80" height="50" as="geometry" />
        </mxCell>
        <mxCell id="yKqNTpvzBy1KA8ICd-nT-155" value="&lt;span class=&quot;custom-cursor-default-hover&quot;&gt;Description&lt;/span&gt;" style="ellipse;whiteSpace=wrap;html=1;" parent="1" vertex="1">
          <mxGeometry x="-330" y="660" width="80" height="50" as="geometry" />
        </mxCell>
        <mxCell id="yKqNTpvzBy1KA8ICd-nT-158" value="&lt;u class=&quot;custom-cursor-default-hover&quot; style=&quot;border-color: var(--border-color);&quot;&gt;VarietalID&lt;/u&gt;" style="ellipse;whiteSpace=wrap;html=1;" parent="1" vertex="1">
          <mxGeometry x="-175" y="740" width="80" height="50" as="geometry" />
        </mxCell>
        <mxCell id="yKqNTpvzBy1KA8ICd-nT-159" value="&lt;u class=&quot;custom-cursor-default-hover&quot; style=&quot;border-color: var(--border-color);&quot;&gt;VarietalID&lt;/u&gt;" style="ellipse;whiteSpace=wrap;html=1;" parent="1" vertex="1">
          <mxGeometry x="530" y="800" width="80" height="50" as="geometry" />
        </mxCell>
        <mxCell id="yKqNTpvzBy1KA8ICd-nT-162" value="&lt;span class=&quot;custom-cursor-default-hover&quot;&gt;Tannin&lt;/span&gt;" style="ellipse;whiteSpace=wrap;html=1;" parent="1" vertex="1">
          <mxGeometry x="180" y="180" width="80" height="50" as="geometry" />
        </mxCell>
        <mxCell id="yKqNTpvzBy1KA8ICd-nT-165" value="&lt;span class=&quot;custom-cursor-default-hover&quot;&gt;Tannin&lt;/span&gt;" style="ellipse;whiteSpace=wrap;html=1;" parent="1" vertex="1">
          <mxGeometry x="345" y="170" width="80" height="50" as="geometry" />
        </mxCell>
        <mxCell id="yKqNTpvzBy1KA8ICd-nT-170" value="" style="edgeStyle=none;rounded=0;orthogonalLoop=1;jettySize=auto;html=1;endArrow=none;endFill=0;" parent="1" source="yKqNTpvzBy1KA8ICd-nT-167" target="yKqNTpvzBy1KA8ICd-nT-32" edge="1">
          <mxGeometry relative="1" as="geometry" />
        </mxCell>
        <mxCell id="yKqNTpvzBy1KA8ICd-nT-167" value="&lt;span class=&quot;custom-cursor-default-hover&quot;&gt;Tannin&lt;/span&gt;" style="ellipse;whiteSpace=wrap;html=1;" parent="1" vertex="1">
          <mxGeometry x="505" y="190" width="80" height="50" as="geometry" />
        </mxCell>
        <mxCell id="yKqNTpvzBy1KA8ICd-nT-168" style="edgeStyle=none;rounded=0;orthogonalLoop=1;jettySize=auto;html=1;exitX=0.5;exitY=0;exitDx=0;exitDy=0;endArrow=none;endFill=0;entryX=0.5;entryY=1;entryDx=0;entryDy=0;" parent="1" target="yKqNTpvzBy1KA8ICd-nT-169" edge="1">
          <mxGeometry relative="1" as="geometry">
            <mxPoint x="635" y="280" as="sourcePoint" />
            <mxPoint x="610" y="220" as="targetPoint" />
          </mxGeometry>
        </mxCell>
        <mxCell id="yKqNTpvzBy1KA8ICd-nT-169" value="&lt;span class=&quot;custom-cursor-default-hover&quot;&gt;Tannin&lt;/span&gt;" style="ellipse;whiteSpace=wrap;html=1;" parent="1" vertex="1">
          <mxGeometry x="600" y="200" width="80" height="50" as="geometry" />
        </mxCell>
      </root>
    </mxGraphModel>
  </diagram>
</mxfile>
